<svg width="38" height="30" viewBox="0 0 38 30" fill="none" xmlns="http://www.w3.org/2000/svg">
<path d="M11.3605 3.86666C11.3271 3.87328 11.2942 3.88232 11.262 3.89369L5.82917 4.84737C2.39302 5.45055 0.0825271 8.73454 0.683919 12.1605L1.0274 14.1172C1.02813 14.194 1.04149 14.2701 1.06696 14.3426L2.74576 23.9062C3.01226 25.4244 4.48011 26.4506 6.00281 26.1833L6.03124 26.1783C6.04196 26.2953 6.04319 26.4133 6.06346 26.5288C6.22685 27.4596 6.69934 28.3457 7.47342 28.9576C8.2475 29.5695 9.32919 29.8727 10.5419 29.6598C11.7546 29.4469 12.6684 28.7935 13.1878 27.9545C13.7072 27.1156 13.8496 26.1215 13.6862 25.1907C13.666 25.0752 13.6269 24.9638 13.5972 24.8502L27.4852 22.4123C27.6391 22.3851 27.7796 22.3076 27.8846 22.1919L28.4913 21.5235L29.7595 21.3008C29.7144 21.669 29.5576 22.0105 29.6248 22.3928C29.9917 24.4833 32.0065 25.8919 34.1032 25.5238C36.1999 25.1558 37.6145 23.1452 37.2475 21.0547C37.1804 20.6724 36.9167 20.4047 36.7489 20.0739L37.0656 20.0183C37.168 20.0003 37.2652 19.9599 37.3502 19.8999C37.4351 19.8399 37.5057 19.7619 37.5568 19.6716C37.6079 19.5812 37.6383 19.4806 37.6458 19.3771C37.6533 19.2737 37.6377 19.1699 37.6001 19.0732C36.5327 16.3355 34.3688 15.4639 33.3525 15.1992C32.0882 8.62177 28.9703 4.29342 27.4269 2.48054L29.633 2.09327C29.7251 2.07845 29.8133 2.04553 29.8925 1.99643C29.9717 1.94733 30.0404 1.88303 30.0945 1.80726C30.1486 1.7315 30.1871 1.64578 30.2077 1.55508C30.2283 1.46439 30.2307 1.37054 30.2146 1.27897C30.1985 1.18741 30.1644 1.09996 30.1141 1.02171C30.0638 0.943463 29.9984 0.875974 29.9218 0.823167C29.8451 0.77036 29.7586 0.733288 29.6674 0.714106C29.5762 0.694923 29.4821 0.694012 29.3905 0.711427L25.9445 1.31633L25.9256 1.31965L23.9536 1.66582C23.9135 1.66617 23.8736 1.66992 23.8341 1.67705C23.8007 1.68366 23.7678 1.6927 23.7356 1.70407L11.4799 3.85544C11.4399 3.85579 11.3999 3.85954 11.3605 3.86666ZM6.07174 6.22922L10.9226 5.3777L12.0142 11.596L2.31245 13.299L2.06988 11.9172C1.5996 9.23816 3.38472 6.7009 6.07174 6.22922ZM12.3086 5.13441L20.6243 3.67466L22.6255 15.0749C22.9944 17.1764 21.5889 19.174 19.4812 19.544L17.7487 19.8481L17.3849 17.7754C17.0929 16.1122 15.6517 14.9234 14.0189 14.8775L13.5418 12.1597C13.541 12.0829 13.5277 12.0068 13.5022 11.9343L12.3086 5.13441ZM22.0103 3.43137L23.3962 3.18808L25.0942 12.861C25.1264 13.0442 25.2303 13.2072 25.383 13.3139C25.5357 13.4207 25.7247 13.4625 25.9085 13.4303L31.2236 12.4973C31.5155 13.4603 31.7769 14.4866 31.9843 15.591L27.6615 20.349C27.6193 20.3858 27.5817 20.4274 27.5494 20.473L27.0044 21.0723L12.9851 23.5332C12.7841 23.2502 12.5569 22.9837 12.2763 22.7618C11.5022 22.1499 10.4205 21.8468 9.20778 22.0596C7.99506 22.2725 7.08129 22.926 6.56189 23.7649C6.37355 24.0691 6.25076 24.397 6.15817 24.7316L5.76024 24.8015C4.98642 24.9373 4.26715 24.4344 4.13172 23.6629L3.16144 18.1355L13.4397 16.3313C13.5009 16.3309 13.5619 16.3225 13.6209 16.3064C14.7523 16.1427 15.8004 16.8877 15.9989 18.0187L16.4841 20.7824C16.5162 20.9656 16.6201 21.1285 16.7728 21.2353C16.9255 21.342 17.1145 21.3839 17.2983 21.3516L19.7238 20.9259C22.5833 20.4239 24.5119 17.6826 24.0115 14.8316L22.0103 3.43137ZM24.7822 2.94479L25.7919 2.76755C26.2743 3.24448 28.9484 6.05322 30.778 11.1511L26.3589 11.9268L24.7822 2.94479ZM2.55502 14.6809L12.2567 12.9779L12.6206 15.0506L2.91887 16.7537L2.55502 14.6809ZM33.0082 16.5519C33.5892 16.6998 34.8834 17.1967 35.8255 18.8116L35.6035 18.8506L30.4197 19.7605L30.0313 19.8287L33.0082 16.5519ZM9.45035 23.4415C9.60228 23.4148 9.73685 23.4121 9.87385 23.4061C10.7692 23.4042 11.5754 23.8932 12.0073 24.6549C12.0278 24.6904 12.0514 24.7239 12.0779 24.7552C12.1774 24.9706 12.2585 25.1963 12.3003 25.434C12.4098 26.0577 12.3054 26.7094 11.9899 27.2189C11.6745 27.7283 11.1656 28.1259 10.2993 28.2779C9.43311 28.43 8.81916 28.2296 8.3491 27.858C7.87904 27.4864 7.55891 26.9092 7.44941 26.2855C7.40785 26.0487 7.40788 25.8098 7.42781 25.5743C7.442 25.5354 7.45271 25.4953 7.45982 25.4546C7.60699 24.5907 8.19777 23.8557 9.04011 23.5524C9.17094 23.5114 9.29841 23.4682 9.45035 23.4415ZM31.1441 21.0578L35.3643 20.317C35.5807 20.6107 35.7939 20.9127 35.8616 21.298C36.0974 22.6415 35.2081 23.9055 33.8606 24.142C32.5132 24.3785 31.2465 23.493 31.0107 22.1495C30.9431 21.7642 31.0407 21.4076 31.1441 21.0578Z" fill="#696969"/>
</svg>
