<svg width="35" height="26" viewBox="0 0 35 26" fill="none" xmlns="http://www.w3.org/2000/svg">
<path d="M24.7262 0.0673249C23.798 0.0462336 22.9485 0.231059 22.2724 0.597775C21.6992 0.909259 21.219 1.37726 21.0719 1.99414C20.4716 2.23958 19.8079 2.51237 19.2813 2.72809C18.7546 2.9438 18.3942 3.07954 18.2492 3.14429C17.867 3.31879 17.5532 3.58121 17.3963 3.94141C17.2394 4.30161 17.2846 4.72397 17.455 5.03141C17.7984 5.64636 18.533 5.92475 19.2958 5.76413C19.9013 5.63657 20.3943 5.29448 20.8162 4.98217C21.3562 6.70334 21.9209 9.17614 21.6933 11.3876C21.5597 12.6747 21.1716 13.7964 20.4524 14.5626C19.7333 15.3287 18.676 15.8202 16.9186 15.7803C15.6253 15.7509 14.5438 15.7028 14.1723 15.4039C13.9853 15.2531 13.8643 15.0671 13.8377 14.5169C13.811 13.9668 13.9375 13.106 14.3148 11.8899C14.3459 11.7807 14.3485 11.6656 14.3224 11.5551C14.3224 11.5551 14.2458 11.1346 13.9659 10.7095C13.9872 10.6917 14.0082 10.6869 14.0294 10.6691C14.2025 10.516 14.3727 10.2582 14.3798 9.9443C14.3915 9.42901 14.2361 8.92302 13.9537 8.49003C13.6714 8.05705 13.2109 7.65665 12.5747 7.6422L2.93772 7.42323C2.30151 7.40877 1.82332 7.78784 1.5216 8.20755C1.21988 8.62727 1.0416 9.12568 1.02989 9.64096C1.023 9.94437 1.1655 10.2172 1.32614 10.3804C1.48678 10.5437 1.66734 10.6342 1.86087 10.7276C1.96155 10.7744 2.07793 10.8189 2.19177 10.8607C1.68877 11.7574 0.944606 13.3944 0.898664 15.4163C0.875367 16.4416 1.58441 17.269 2.53359 17.8611C2.7574 17.9996 2.99704 18.1307 3.2551 18.2543C2.98117 18.8291 2.81005 19.4716 2.79465 20.149C2.73599 22.7307 4.78711 24.884 7.36063 24.9424C9.93414 25.0009 12.0809 22.943 12.1396 20.3614C12.1409 20.3064 12.1448 20.2489 12.1434 20.194C13.5205 20.3221 14.9061 20.4242 16.2489 20.4547C18.2879 20.5011 20.0517 20.371 21.5785 20.1152C21.6598 20.6693 21.8249 21.0944 22.1127 21.4045C22.5379 21.8616 23.1151 21.9506 23.4566 21.9584C23.7513 21.9651 24.0403 21.8722 24.2754 21.7467C24.7295 23.8035 26.5303 25.378 28.7205 25.4278C31.294 25.4862 33.4408 23.4283 33.4995 20.8467C33.5161 20.1143 33.3547 19.4119 33.0663 18.7851C33.1711 18.7666 33.2711 18.727 33.3816 18.6876C33.6263 18.5964 33.8913 18.4166 34.0406 18.1583C34.19 17.9 34.2408 17.6159 34.2474 17.3255C34.2691 16.3682 33.6403 15.4537 32.5745 14.7124C31.65 14.0685 30.3467 13.5626 28.7014 13.4101C28.5949 13.0465 28.4411 12.6976 28.2454 12.3529C28.2456 12.3451 28.2457 12.3399 28.2459 12.332C27.3622 10.8098 25.4209 8.18793 24.3476 4.79024C24.4361 4.79749 24.527 4.81526 24.6183 4.81733C25.0824 4.82788 25.4717 4.80009 25.8111 4.67695C26.1504 4.55381 26.4452 4.32236 26.6185 4.04628C26.9676 3.49156 26.8942 2.93509 26.9044 2.48258C26.9147 2.03007 27.0129 1.49844 26.6893 0.928432C26.5288 0.644766 26.2448 0.400167 25.9114 0.261742C25.578 0.123317 25.1903 0.0778706 24.7262 0.0673249ZM24.6958 1.40653C25.0556 1.41471 25.292 1.45934 25.4031 1.50635C25.5142 1.55336 25.5088 1.56371 25.5264 1.59289C25.5589 1.65121 25.5806 1.96051 25.5694 2.45225C25.5583 2.94399 25.5221 3.27291 25.4869 3.32968C25.468 3.35804 25.473 3.36862 25.3598 3.41054C25.2467 3.45245 25.0085 3.4863 24.6487 3.47812C23.9265 3.46171 23.2944 3.26678 22.8852 3.01933C22.476 2.77189 22.3536 2.53358 22.3571 2.37926C22.3606 2.22493 22.4937 1.99243 22.9137 1.76382C23.3337 1.53522 23.9735 1.39012 24.6958 1.40653ZM20.1753 3.7952C20.1382 3.82314 20.1511 3.82605 20.1113 3.85655C19.7424 4.13342 19.2508 4.41535 19.0332 4.46013C18.8445 4.50033 18.7961 4.44689 18.7422 4.41165C18.7687 4.39131 18.7398 4.40113 18.8057 4.37122C18.8294 4.36129 19.2694 4.16978 19.7961 3.95407C19.9093 3.90692 20.0516 3.84473 20.1753 3.7952ZM21.9858 4.02476C22.0551 4.07344 22.119 4.13246 22.1911 4.17597C22.3918 4.29568 22.6218 4.39512 22.8519 4.48409C23.9448 8.51031 26.2753 11.5728 27.1038 12.997C27.1063 13.0022 27.1008 13.0126 27.1033 13.0179C27.1711 13.1372 27.2335 13.259 27.283 13.3779C24.3429 13.6094 21.8448 15.8556 21.5463 18.7746C20.0795 19.0344 18.3366 19.1623 16.2793 19.1155C14.7331 19.0804 13.1157 18.9651 11.549 18.7987C11.4816 18.7788 11.4114 18.7694 11.3409 18.773C9.61302 18.582 7.95958 18.3298 6.53809 17.973C5.15814 17.625 3.9971 17.172 3.24857 16.7049C2.50004 16.2378 2.2248 15.8364 2.23366 15.4466C2.28055 13.3829 3.16972 11.7936 3.54049 11.2054C4.64211 11.4031 6.03529 11.5133 7.60234 11.5489C9.28412 11.5871 10.822 11.5279 11.9894 11.3555C12.2146 11.3214 12.4188 11.2867 12.6181 11.2442C12.8399 11.3565 12.9552 11.6784 12.9821 11.7549C12.6511 12.891 12.4653 13.8341 12.5008 14.5703C12.5398 15.3772 12.8324 16.0486 13.3345 16.4526C14.3361 17.263 15.6601 17.0916 16.8882 17.1195C18.9193 17.1657 20.4387 16.5433 21.4332 15.4851C22.4277 14.4269 22.8746 13.0134 23.0254 11.5434C23.3064 8.82292 22.6146 5.85786 21.9858 4.02476ZM2.90729 8.76244L12.5443 8.98141C12.5625 8.98182 12.6995 9.03727 12.8306 9.23914C12.9264 9.38526 12.9563 9.56127 12.9865 9.72421C12.9733 9.73176 12.981 9.73717 12.9652 9.74466C12.7414 9.83641 12.3343 9.95539 11.8108 10.0325C10.7638 10.1866 9.2598 10.2467 7.63277 10.2097C6.00836 10.1728 4.55817 10.0456 3.55053 9.84479C3.04672 9.74436 2.63724 9.62514 2.43079 9.52624C2.46588 9.35955 2.49914 9.1588 2.60955 9.0069C2.74965 8.81119 2.88903 8.76202 2.90729 8.76244ZM27.8997 14.7108C29.691 14.7515 30.9792 15.2336 31.7984 15.8044C32.6176 16.3752 32.9178 17.0572 32.9124 17.2952C32.9097 17.4103 32.891 17.4308 32.8882 17.4412C32.8174 17.4579 32.4989 17.4664 32.0116 17.4422C30.9876 17.3901 29.3274 17.3184 27.2798 18.1093C25.4691 18.8088 24.615 19.5431 24.1257 20.0684C23.8823 20.3325 23.724 20.5225 23.6549 20.5811C23.5857 20.6398 23.6409 20.6227 23.4871 20.6192C23.2889 20.6147 23.1878 20.5862 23.0936 20.4846C22.9994 20.3831 22.8313 20.0861 22.85 19.2648C22.9084 16.6936 25.2271 14.6501 27.8997 14.7108ZM31.1051 18.7615C31.2538 18.7623 31.3841 18.7652 31.5223 18.771C31.9397 19.3457 32.1819 20.05 32.1645 20.8164C32.1223 22.6735 30.6022 24.1306 28.751 24.0886C26.8997 24.0465 25.4473 22.5218 25.4895 20.6647C25.49 20.6438 25.4905 20.6228 25.491 20.6019C25.6798 20.4413 25.9423 20.2589 26.2543 20.0749C26.2055 20.2675 26.1617 20.4732 26.157 20.6799C26.1236 22.1525 27.2982 23.3856 28.7662 23.4189C30.2341 23.4523 31.4636 22.2738 31.497 20.8012C31.5153 19.9982 31.1586 19.2757 30.604 18.7711C30.7711 18.7644 30.9486 18.7606 31.1051 18.7615ZM4.47534 18.7426C4.685 18.8154 4.89441 18.8987 5.11722 18.9666C4.91584 19.3336 4.80731 19.7473 4.79714 20.1945C4.76374 21.6645 5.94091 22.9003 7.40627 22.9336C8.87164 22.9669 10.1037 21.7859 10.1371 20.3159C10.1395 20.2112 10.1132 20.106 10.1025 20.001C10.3314 20.0324 10.5579 20.0506 10.7895 20.0795C10.7928 20.1633 10.8066 20.2447 10.8046 20.331C10.7624 22.1881 9.24232 23.6453 7.39106 23.6032C5.5398 23.5612 4.08745 22.0365 4.12965 20.1794C4.14147 19.6588 4.25937 19.1774 4.47534 18.7426ZM28.8575 19.4013C29.6032 19.4183 30.179 20.0228 30.162 20.7709C30.145 21.5189 29.5423 22.0967 28.7966 22.0797C28.0509 22.0628 27.475 21.4583 27.492 20.7102C27.4954 20.5637 27.5194 20.423 27.5641 20.2931C27.8179 20.6077 28.0824 20.9042 28.3368 21.19C28.4887 21.3949 28.7446 21.4976 28.9961 21.451C29.245 21.4043 29.4501 21.2179 29.5183 20.9708C29.5865 20.7264 29.5091 20.4603 29.3173 20.2911C29.0756 20.0213 28.8294 19.7173 28.5858 19.4161C28.6749 19.3998 28.7636 19.3992 28.8575 19.4013ZM6.44509 19.3108C6.71234 19.3744 6.97438 19.438 7.25479 19.4967C7.16655 19.5915 7.08595 19.6943 6.99783 19.7839C6.79853 19.9443 6.70909 20.2066 6.76608 20.4539C6.82301 20.7038 7.01944 20.8993 7.26596 20.9572C7.51508 21.0152 7.77541 20.9243 7.93643 20.7265C8.20887 20.4474 8.48201 20.1369 8.75001 19.8238C8.75374 19.8893 8.76535 19.9523 8.78745 20.013C8.80386 20.0945 8.80432 20.1888 8.80212 20.2855C8.78519 21.031 8.17981 21.6113 7.4367 21.5944C6.69359 21.5775 6.1152 20.9703 6.13214 20.2249C6.13832 19.9528 6.21703 19.7034 6.35737 19.4972C6.39518 19.4405 6.42529 19.3784 6.44509 19.3108Z" fill="#696969"/>
</svg>
