<svg width="36" height="24" viewBox="0 0 36 24" fill="none" xmlns="http://www.w3.org/2000/svg">
<path d="M13.1116 0.662195C11.9066 0.480579 10.6832 0.940594 9.8867 1.88696L6.77962 5.59309L4.54336 5.59819C2.78692 5.59007 1.28443 6.90051 1.01759 8.67093L0.314955 13.3326C0.138037 14.5063 0.940322 15.6167 2.09062 15.7901L3.55513 16.0108C3.58338 18.0852 5.07465 19.8896 7.14846 20.2022C9.22227 20.5148 11.1792 19.2301 11.8176 17.2562L23.1402 18.9628C23.1685 21.0372 24.6597 22.8416 26.7336 23.1542C28.8074 23.4668 30.7643 22.1821 31.4027 20.2082L32.8672 20.4289C34.0175 20.6023 35.1114 19.7777 35.2883 18.604L35.8935 14.5892C36.1557 12.8494 35.1293 11.1863 33.4923 10.6459L27.8729 8.77241L25.3338 3.96433C24.8079 2.96691 23.8522 2.2811 22.7511 2.11513L13.1116 0.662195ZM12.8964 2.08968L16.9402 2.69919L16.2947 6.98164L8.46944 5.80216L10.9746 2.82652C11.4544 2.25727 12.1724 1.98055 12.8964 2.08968ZM18.3391 2.91004L22.536 3.54261C23.1972 3.64228 23.7762 4.04606 24.0913 4.64387L26.0873 8.45764L17.6937 7.1925L18.3391 2.91004ZM7.09579 7.05503L27.1618 10.0795L33.0619 12.0181C34.0522 12.3442 34.653 13.3272 34.4945 14.3783L33.8894 18.3931C33.8285 18.7974 33.4785 19.0611 33.0824 19.0014L31.6178 18.7807C31.5896 16.7063 30.0983 14.9019 28.0245 14.5893C25.9507 14.2767 23.9938 15.5614 23.3554 17.5353L12.0328 15.8287C12.0045 13.7543 10.5132 11.9499 8.43942 11.6373C6.36561 11.3247 4.40872 12.6094 3.77029 14.5833L2.30578 14.3626C1.9096 14.3029 1.65296 13.9477 1.71389 13.5434L2.41652 8.88178C2.57789 7.81117 3.46732 7.02708 4.52829 7.03302L7.09579 7.05503ZM8.22426 13.0648C9.77894 13.2991 10.8309 14.7551 10.5918 16.3415C10.3527 17.9279 8.9183 19.0091 7.36362 18.7747C5.80894 18.5404 4.75696 17.0844 4.99607 15.498C5.23518 13.9116 6.66958 12.8305 8.22426 13.0648ZM27.8094 16.0168C29.364 16.2511 30.416 17.7071 30.1769 19.2935C29.9378 20.8799 28.5034 21.961 26.9487 21.7267C25.394 21.4924 24.3421 20.0364 24.5812 18.45C24.8203 16.8636 26.2547 15.7824 27.8094 16.0168Z" fill="#FEFAF4"/>
</svg>
