<svg width="25" height="25" viewBox="0 0 25 25" fill="none" xmlns="http://www.w3.org/2000/svg">
<g clip-path="url(#clip0_3955_4701)">
<g clip-path="url(#clip1_3955_4701)">
<path fill-rule="evenodd" clip-rule="evenodd" d="M24 12.4694C24 6.07903 18.8515 0.898926 12.5014 0.898926C6.14848 0.900363 1 6.07903 1 12.4708C1 18.2445 5.2056 23.0308 10.7019 23.8989V15.814H7.78415V12.4708H10.7048V9.91955C10.7048 7.02047 12.4224 5.4193 15.0484 5.4193C16.3075 5.4193 17.6226 5.64496 17.6226 5.64496V8.49085H16.1724C14.7451 8.49085 14.2995 9.38343 14.2995 10.299V12.4694H17.4875L16.9787 15.8126H14.2981V23.8975C19.7944 23.0293 24 18.2431 24 12.4694Z" fill="white"/>
</g>
</g>
<defs>
<clipPath id="clip0_3955_4701">
<rect width="24" height="24" fill="white" transform="translate(0.5 0.898926)"/>
</clipPath>
<clipPath id="clip1_3955_4701">
<rect width="24" height="24" fill="white" transform="translate(0.5 0.898926)"/>
</clipPath>
</defs>
</svg>
