<svg width="1122" height="88" viewBox="0 0 1122 88" fill="none" xmlns="http://www.w3.org/2000/svg">
<path fill-rule="evenodd" clip-rule="evenodd" d="M152.862 -811.927C152.862 -902.542 249.475 -976 368.654 -976H1087.96C1207.14 -976 1303.75 -902.542 1303.75 -811.927V-583.827C1387.57 -561.303 1447.62 -500.528 1447.62 -429.09V-265.016C1447.62 -174.401 1351 -100.943 1231.82 -100.943H1131.39C1119.37 -100.943 1107.55 -98.6556 1097 -94.289L669.501 82.6227C631.156 98.4911 584.447 77.3867 584.447 44.1931V-46.2523C584.447 -76.4573 552.242 -100.943 512.516 -100.943H224.793C196.957 -100.943 170.353 -104.951 145.923 -112.247H0.880524V-804.636H152.862V-811.927ZM933.104 -538.472V-804.636H310.896C334.124 -841.309 383.467 -866.618 440.585 -866.618H1016.03C1095.48 -866.618 1159.89 -817.646 1159.89 -757.236V-593.163C1159.89 -562.958 1127.69 -538.472 1087.96 -538.472H933.104ZM1159.89 -346.982C1159.89 -301.635 1111.59 -264.875 1052 -264.875C992.408 -264.875 944.101 -301.635 944.101 -346.982C944.101 -392.329 992.408 -429.09 1052 -429.09C1111.59 -429.09 1159.89 -392.329 1159.89 -346.982ZM1447.62 -647.854C1447.62 -678.059 1415.41 -702.545 1375.69 -702.545H1303.76V-593.163H1375.69C1415.41 -593.163 1447.62 -617.649 1447.62 -647.854Z" fill="#FFC600"/>
</svg>
