<svg width="25" height="25" viewBox="0 0 25 25" fill="none" xmlns="http://www.w3.org/2000/svg">
<path d="M13 1.89893C10.0149 1.89893 9.6395 1.91268 8.46663 1.96493C7.29375 2.01993 6.49487 2.20418 5.795 2.47643C5.06088 2.75255 4.39593 3.18569 3.84663 3.74555C3.2871 4.29513 2.85402 4.96001 2.5775 5.69393C2.30525 6.39243 2.11963 7.19268 2.066 8.36143C2.01375 9.53705 2 9.91105 2 12.9003C2 15.8868 2.01375 16.2608 2.066 17.4337C2.121 18.6052 2.30525 19.4041 2.5775 20.1039C2.85938 20.8272 3.23475 21.4404 3.84663 22.0523C4.45713 22.6642 5.07037 23.0409 5.79363 23.3214C6.49487 23.5937 7.29238 23.7793 8.46388 23.8329C9.63813 23.8852 10.0121 23.8989 13 23.8989C15.9879 23.8989 16.3605 23.8852 17.5347 23.8329C18.7049 23.7779 19.5065 23.5937 20.2064 23.3214C20.94 23.0452 21.6045 22.612 22.1534 22.0523C22.7652 21.4404 23.1406 20.8272 23.4225 20.1039C23.6934 19.4041 23.879 18.6052 23.934 17.4337C23.9862 16.2608 24 15.8868 24 12.8989C24 9.91105 23.9862 9.53705 23.934 8.3628C23.879 7.19268 23.6934 6.39243 23.4225 5.69393C23.146 4.95999 22.7129 4.2951 22.1534 3.74555C21.6042 3.18548 20.9392 2.75231 20.205 2.47643C19.5037 2.20418 18.7035 2.01855 17.5334 1.96493C16.3591 1.91268 15.9865 1.89893 12.9973 1.89893H13.0014H13ZM12.0141 3.88168H13.0014C15.9384 3.88168 16.2863 3.8913 17.4454 3.94493C18.5179 3.99305 19.1009 4.17318 19.4886 4.32305C20.0015 4.52243 20.3686 4.76168 20.7536 5.14668C21.1386 5.53168 21.3765 5.89743 21.5759 6.41168C21.7271 6.79805 21.9059 7.38105 21.954 8.45355C22.0076 9.61268 22.0186 9.96055 22.0186 12.8962C22.0186 15.8318 22.0076 16.1811 21.954 17.3402C21.9059 18.4127 21.7257 18.9943 21.5759 19.3821C21.3995 19.8597 21.118 20.2915 20.7522 20.6457C20.3672 21.0307 20.0015 21.2686 19.4873 21.4679C19.1023 21.6192 18.5192 21.7979 17.4454 21.8474C16.2863 21.8997 15.9384 21.9121 13.0014 21.9121C10.0644 21.9121 9.71513 21.8997 8.556 21.8474C7.4835 21.7979 6.90188 21.6192 6.51412 21.4679C6.03631 21.2918 5.60405 21.0108 5.24913 20.6457C4.88303 20.291 4.60112 19.8587 4.42412 19.3807C4.27425 18.9943 4.09413 18.4113 4.046 17.3388C3.99375 16.1797 3.98275 15.8318 3.98275 12.8934C3.98275 9.95643 3.99375 9.60993 4.046 8.4508C4.0955 7.3783 4.27425 6.7953 4.4255 6.40755C4.62488 5.89468 4.86412 5.52755 5.24913 5.14255C5.63412 4.75755 5.99988 4.51968 6.51412 4.3203C6.90188 4.16905 7.4835 3.9903 8.556 3.9408C9.57075 3.89405 9.964 3.8803 12.0141 3.87893V3.88168ZM18.8726 5.70768C18.6993 5.70768 18.5276 5.74182 18.3675 5.80816C18.2073 5.87449 18.0618 5.97172 17.9392 6.0943C17.8167 6.21687 17.7194 6.36238 17.6531 6.52253C17.5868 6.68268 17.5526 6.85433 17.5526 7.02768C17.5526 7.20102 17.5868 7.37267 17.6531 7.53282C17.7194 7.69297 17.8167 7.83848 17.9392 7.96106C18.0618 8.08363 18.2073 8.18086 18.3675 8.2472C18.5276 8.31353 18.6993 8.34768 18.8726 8.34768C19.2227 8.34768 19.5585 8.2086 19.806 7.96106C20.0536 7.71351 20.1926 7.37776 20.1926 7.02768C20.1926 6.67759 20.0536 6.34184 19.806 6.0943C19.5585 5.84675 19.2227 5.70768 18.8726 5.70768ZM13.0014 7.25043C12.2521 7.23874 11.508 7.37622 10.8123 7.65487C10.1167 7.93352 9.48346 8.34777 8.94946 8.87351C8.41546 9.39924 7.99138 10.026 7.70191 10.7172C7.41244 11.4084 7.26336 12.1502 7.26336 12.8996C7.26336 13.649 7.41244 14.3909 7.70191 15.0821C7.99138 15.7733 8.41546 16.4 8.94946 16.9257C9.48346 17.4515 10.1167 17.8657 10.8123 18.1444C11.508 18.423 12.2521 18.5605 13.0014 18.5488C14.4844 18.5257 15.8988 17.9203 16.9393 16.8634C17.9799 15.8065 18.5631 14.3828 18.5631 12.8996C18.5631 11.4164 17.9799 9.99274 16.9393 8.93583C15.8988 7.87892 14.4844 7.27356 13.0014 7.25043ZM13.0014 9.2318C13.974 9.2318 14.9067 9.61816 15.5944 10.3059C16.2821 10.9936 16.6685 11.9263 16.6685 12.8989C16.6685 13.8715 16.2821 14.8043 15.5944 15.492C14.9067 16.1797 13.974 16.5661 13.0014 16.5661C12.0288 16.5661 11.096 16.1797 10.4083 15.492C9.72061 14.8043 9.33425 13.8715 9.33425 12.8989C9.33425 11.9263 9.72061 10.9936 10.4083 10.3059C11.096 9.61816 12.0288 9.2318 13.0014 9.2318Z" fill="white"/>
</svg>
