 <svg width="28" height="27" viewBox="0 0 28 27" fill="none" xmlns="http://www.w3.org/2000/svg">
                    <path fill-rule="evenodd" clip-rule="evenodd" d="M3.33333 4.66666C3.33333 2.45752 5.12419 0.666656 7.33333 0.666656H20.6666C22.8758 0.666656 24.6666 2.45752 24.6666 4.66666V10.2276C26.2202 10.7767 27.3333 12.2584 27.3333 14V18C27.3333 20.2091 25.5424 22 23.3333 22H21.4716C21.2489 22 21.0298 22.0558 20.8342 22.1622L12.9099 26.4752C12.1992 26.8621 11.3333 26.3476 11.3333 25.5383V23.3333C11.3333 22.5969 10.7364 22 10 22H4.66666C2.45753 22 0.666664 20.2091 0.666664 18V14C0.666664 12.2584 1.77974 10.7767 3.33333 10.2276V4.66666ZM8 18.0034C9.10457 18.0034 10 17.1072 10 16.0017C10 14.8962 9.10457 14 8 14C6.89543 14 6 14.8962 6 16.0017C6 17.1072 6.89543 18.0034 8 18.0034ZM22 16.0017C22 17.1072 21.1046 18.0034 20 18.0034C18.8954 18.0034 18 17.1072 18 16.0017C18 14.8962 18.8954 14 20 14C21.1046 14 22 14.8962 22 16.0017ZM8.66666 3.33332C7.1939 3.33332 6 4.52723 6 5.99999V9.99999C6 10.7364 6.59695 11.3333 7.33333 11.3333H20.6667C21.403 11.3333 22 10.7364 22 9.99999V5.99999C22 4.52723 20.8061 3.33332 19.3333 3.33332H8.66666Z" fill="#FFC600"/>
                    <path d="M27.3333 8.66666C27.3333 7.93028 26.7364 7.33332 26 7.33332H24.6667V9.99999H26C26.7364 9.99999 27.3333 9.40304 27.3333 8.66666Z" fill="#FFC600"/>
                    <path d="M2 7.33332C1.26362 7.33332 0.666664 7.93028 0.666664 8.66666C0.666664 9.40304 1.26362 9.99999 2 9.99999H3.33333V7.33332H2Z" fill="#FFC600"/>
                    </svg>