<svg width="189" height="165" viewBox="0 0 189 165" fill="none" xmlns="http://www.w3.org/2000/svg">
<g clip-path="url(#clip0_3955_4588)">
<path d="M0 60.3474C0 27.2103 26.8629 0.347412 60 0.347412H129C162.137 0.347412 189 27.2103 189 60.3474V164.347H0V60.3474Z" fill="#FEFAF4"/>
<path d="M0 38.3474C0 16.256 17.9086 -1.65259 40 -1.65259H149C171.091 -1.65259 189 16.256 189 38.3474V78.3474H0V38.3474Z" fill="#FFC600"/>
<path d="M36.561 43.3634C36.561 42.1847 36.816 41.1364 37.326 40.2184C37.836 39.2891 38.5443 38.5694 39.451 38.0594C40.369 37.5381 41.406 37.2774 42.562 37.2774C43.9787 37.2774 45.1913 37.6514 46.2 38.3994C47.2087 39.1474 47.883 40.1674 48.223 41.4594H45.027C44.789 40.9607 44.449 40.5811 44.007 40.3204C43.5763 40.0597 43.0833 39.9294 42.528 39.9294C41.6327 39.9294 40.9073 40.2411 40.352 40.8644C39.7967 41.4877 39.519 42.3207 39.519 43.3634C39.519 44.4061 39.7967 45.2391 40.352 45.8624C40.9073 46.4857 41.6327 46.7974 42.528 46.7974C43.0833 46.7974 43.5763 46.6671 44.007 46.4064C44.449 46.1457 44.789 45.7661 45.027 45.2674H48.223C47.883 46.5594 47.2087 47.5794 46.2 48.3274C45.1913 49.0641 43.9787 49.4324 42.562 49.4324C41.406 49.4324 40.369 49.1774 39.451 48.6674C38.5443 48.1461 37.836 47.4264 37.326 46.5084C36.816 45.5904 36.561 44.5421 36.561 43.3634ZM54.3467 49.4834C53.4174 49.4834 52.5787 49.2851 51.8307 48.8884C51.0941 48.4917 50.5104 47.9251 50.0797 47.1884C49.6604 46.4517 49.4507 45.5904 49.4507 44.6044C49.4507 43.6297 49.6661 42.7741 50.0967 42.0374C50.5274 41.2894 51.1167 40.7171 51.8647 40.3204C52.6127 39.9237 53.4514 39.7254 54.3807 39.7254C55.3101 39.7254 56.1487 39.9237 56.8967 40.3204C57.6447 40.7171 58.2341 41.2894 58.6647 42.0374C59.0954 42.7741 59.3107 43.6297 59.3107 44.6044C59.3107 45.5791 59.0897 46.4404 58.6477 47.1884C58.2171 47.9251 57.6221 48.4917 56.8627 48.8884C56.1147 49.2851 55.2761 49.4834 54.3467 49.4834ZM54.3467 46.9674C54.9021 46.9674 55.3724 46.7634 55.7577 46.3554C56.1544 45.9474 56.3527 45.3637 56.3527 44.6044C56.3527 43.8451 56.1601 43.2614 55.7747 42.8534C55.4007 42.4454 54.9361 42.2414 54.3807 42.2414C53.8141 42.2414 53.3437 42.4454 52.9697 42.8534C52.5957 43.2501 52.4087 43.8337 52.4087 44.6044C52.4087 45.3637 52.5901 45.9474 52.9527 46.3554C53.3267 46.7634 53.7914 46.9674 54.3467 46.9674ZM72.9824 39.7594C74.1611 39.7594 75.0961 40.1164 75.7874 40.8304C76.4901 41.5444 76.8414 42.5361 76.8414 43.8054V49.3474H73.9514V44.1964C73.9514 43.5844 73.7871 43.1141 73.4584 42.7854C73.1411 42.4454 72.6991 42.2754 72.1324 42.2754C71.5658 42.2754 71.1181 42.4454 70.7894 42.7854C70.4721 43.1141 70.3134 43.5844 70.3134 44.1964V49.3474H67.4234V44.1964C67.4234 43.5844 67.2591 43.1141 66.9304 42.7854C66.6131 42.4454 66.1711 42.2754 65.6044 42.2754C65.0378 42.2754 64.5901 42.4454 64.2614 42.7854C63.9441 43.1141 63.7854 43.5844 63.7854 44.1964V49.3474H60.8784V39.8614H63.7854V41.0514C64.0801 40.6547 64.4654 40.3431 64.9414 40.1164C65.4174 39.8784 65.9558 39.7594 66.5564 39.7594C67.2704 39.7594 67.9051 39.9124 68.4604 40.2184C69.0271 40.5244 69.4691 40.9607 69.7864 41.5274C70.1151 41.0061 70.5628 40.5811 71.1294 40.2524C71.6961 39.9237 72.3138 39.7594 72.9824 39.7594ZM80.362 38.8754C79.852 38.8754 79.4327 38.7281 79.104 38.4334C78.7867 38.1274 78.628 37.7534 78.628 37.3114C78.628 36.8581 78.7867 36.4841 79.104 36.1894C79.4327 35.8834 79.852 35.7304 80.362 35.7304C80.8607 35.7304 81.2687 35.8834 81.586 36.1894C81.9147 36.4841 82.079 36.8581 82.079 37.3114C82.079 37.7534 81.9147 38.1274 81.586 38.4334C81.2687 38.7281 80.8607 38.8754 80.362 38.8754ZM81.807 39.8614V49.3474H78.9V39.8614H81.807ZM89.7192 39.7594C90.8299 39.7594 91.7139 40.1221 92.3712 40.8474C93.0399 41.5614 93.3742 42.5474 93.3742 43.8054V49.3474H90.4842V44.1964C90.4842 43.5617 90.3199 43.0687 89.9912 42.7174C89.6625 42.3661 89.2205 42.1904 88.6652 42.1904C88.1099 42.1904 87.6679 42.3661 87.3392 42.7174C87.0105 43.0687 86.8462 43.5617 86.8462 44.1964V49.3474H83.9392V39.8614H86.8462V41.1194C87.1409 40.7001 87.5375 40.3714 88.0362 40.1334C88.5349 39.8841 89.0959 39.7594 89.7192 39.7594ZM99.0238 39.7254C99.6924 39.7254 100.276 39.8614 100.775 40.1334C101.285 40.4054 101.676 40.7624 101.948 41.2044V39.8614H104.855V49.3304C104.855 50.2031 104.679 50.9907 104.328 51.6934C103.988 52.4074 103.461 52.9741 102.747 53.3934C102.044 53.8127 101.166 54.0224 100.112 54.0224C98.7064 54.0224 97.5674 53.6881 96.6948 53.0194C95.8221 52.3621 95.3234 51.4667 95.1988 50.3334H98.0718C98.1624 50.6961 98.3778 50.9794 98.7178 51.1834C99.0578 51.3987 99.4771 51.5064 99.9758 51.5064C100.576 51.5064 101.052 51.3307 101.404 50.9794C101.766 50.6394 101.948 50.0897 101.948 49.3304V47.9874C101.664 48.4294 101.273 48.7921 100.775 49.0754C100.276 49.3474 99.6924 49.4834 99.0238 49.4834C98.2418 49.4834 97.5334 49.2851 96.8988 48.8884C96.2641 48.4804 95.7598 47.9081 95.3858 47.1714C95.0231 46.4234 94.8418 45.5621 94.8418 44.5874C94.8418 43.6127 95.0231 42.7571 95.3858 42.0204C95.7598 41.2837 96.2641 40.7171 96.8988 40.3204C97.5334 39.9237 98.2418 39.7254 99.0238 39.7254ZM101.948 44.6044C101.948 43.8791 101.744 43.3067 101.336 42.8874C100.939 42.4681 100.452 42.2584 99.8738 42.2584C99.2958 42.2584 98.8028 42.4681 98.3948 42.8874C97.9981 43.2954 97.7998 43.8621 97.7998 44.5874C97.7998 45.3127 97.9981 45.8907 98.3948 46.3214C98.8028 46.7407 99.2958 46.9504 99.8738 46.9504C100.452 46.9504 100.939 46.7407 101.336 46.3214C101.744 45.9021 101.948 45.3297 101.948 44.6044ZM114.47 49.4834C113.643 49.4834 112.906 49.3417 112.26 49.0584C111.614 48.7751 111.104 48.3897 110.73 47.9024C110.356 47.4037 110.147 46.8484 110.101 46.2364H112.974C113.008 46.5651 113.161 46.8314 113.433 47.0354C113.705 47.2394 114.04 47.3414 114.436 47.3414C114.799 47.3414 115.077 47.2734 115.269 47.1374C115.473 46.9901 115.575 46.8031 115.575 46.5764C115.575 46.3044 115.434 46.1061 115.15 45.9814C114.867 45.8454 114.408 45.6981 113.773 45.5394C113.093 45.3807 112.527 45.2164 112.073 45.0464C111.62 44.8651 111.229 44.5874 110.9 44.2134C110.572 43.8281 110.407 43.3124 110.407 42.6664C110.407 42.1224 110.555 41.6294 110.849 41.1874C111.155 40.7341 111.597 40.3771 112.175 40.1164C112.765 39.8557 113.462 39.7254 114.266 39.7254C115.456 39.7254 116.391 40.0201 117.071 40.6094C117.763 41.1987 118.159 41.9807 118.261 42.9554H115.575C115.53 42.6267 115.383 42.3661 115.133 42.1734C114.895 41.9807 114.578 41.8844 114.181 41.8844C113.841 41.8844 113.581 41.9524 113.399 42.0884C113.218 42.2131 113.127 42.3887 113.127 42.6154C113.127 42.8874 113.269 43.0914 113.552 43.2274C113.847 43.3634 114.3 43.4994 114.912 43.6354C115.615 43.8167 116.187 43.9981 116.629 44.1794C117.071 44.3494 117.457 44.6327 117.785 45.0294C118.125 45.4147 118.301 45.9361 118.312 46.5934C118.312 47.1487 118.154 47.6474 117.836 48.0894C117.53 48.5201 117.083 48.8601 116.493 49.1094C115.915 49.3587 115.241 49.4834 114.47 49.4834ZM124.434 49.4834C123.505 49.4834 122.666 49.2851 121.918 48.8884C121.182 48.4917 120.598 47.9251 120.167 47.1884C119.748 46.4517 119.538 45.5904 119.538 44.6044C119.538 43.6297 119.754 42.7741 120.184 42.0374C120.615 41.2894 121.204 40.7171 121.952 40.3204C122.7 39.9237 123.539 39.7254 124.468 39.7254C125.398 39.7254 126.236 39.9237 126.984 40.3204C127.732 40.7171 128.322 41.2894 128.752 42.0374C129.183 42.7741 129.398 43.6297 129.398 44.6044C129.398 45.5791 129.177 46.4404 128.735 47.1884C128.305 47.9251 127.71 48.4917 126.95 48.8884C126.202 49.2851 125.364 49.4834 124.434 49.4834ZM124.434 46.9674C124.99 46.9674 125.46 46.7634 125.845 46.3554C126.242 45.9474 126.44 45.3637 126.44 44.6044C126.44 43.8451 126.248 43.2614 125.862 42.8534C125.488 42.4454 125.024 42.2414 124.468 42.2414C123.902 42.2414 123.431 42.4454 123.057 42.8534C122.683 43.2501 122.496 43.8337 122.496 44.6044C122.496 45.3637 122.678 45.9474 123.04 46.3554C123.414 46.7634 123.879 46.9674 124.434 46.9674ZM135.284 49.4834C134.355 49.4834 133.516 49.2851 132.768 48.8884C132.031 48.4917 131.448 47.9251 131.017 47.1884C130.598 46.4517 130.388 45.5904 130.388 44.6044C130.388 43.6297 130.603 42.7741 131.034 42.0374C131.465 41.2894 132.054 40.7171 132.802 40.3204C133.55 39.9237 134.389 39.7254 135.318 39.7254C136.247 39.7254 137.086 39.9237 137.834 40.3204C138.582 40.7171 139.171 41.2894 139.602 42.0374C140.033 42.7741 140.248 43.6297 140.248 44.6044C140.248 45.5791 140.027 46.4404 139.585 47.1884C139.154 47.9251 138.559 48.4917 137.8 48.8884C137.052 49.2851 136.213 49.4834 135.284 49.4834ZM135.284 46.9674C135.839 46.9674 136.31 46.7634 136.695 46.3554C137.092 45.9474 137.29 45.3637 137.29 44.6044C137.29 43.8451 137.097 43.2614 136.712 42.8534C136.338 42.4454 135.873 42.2414 135.318 42.2414C134.751 42.2414 134.281 42.4454 133.907 42.8534C133.533 43.2501 133.346 43.8337 133.346 44.6044C133.346 45.3637 133.527 45.9474 133.89 46.3554C134.264 46.7634 134.729 46.9674 135.284 46.9674ZM147.596 39.7594C148.706 39.7594 149.591 40.1221 150.248 40.8474C150.917 41.5614 151.251 42.5474 151.251 43.8054V49.3474H148.361V44.1964C148.361 43.5617 148.197 43.0687 147.868 42.7174C147.539 42.3661 147.097 42.1904 146.542 42.1904C145.986 42.1904 145.545 42.3661 145.216 42.7174C144.887 43.0687 144.723 43.5617 144.723 44.1964V49.3474H141.816V39.8614H144.723V41.1194C145.017 40.7001 145.414 40.3714 145.913 40.1334C146.411 39.8841 146.972 39.7594 147.596 39.7594Z" fill="#474747"/>
<path d="M61.2819 107.177H57.0259L56.2419 109.347H54.8979L58.4259 99.6454H59.8959L63.4099 109.347H62.0659L61.2819 107.177ZM60.9179 106.141L59.1539 101.213L57.3899 106.141H60.9179ZM71.7655 101.675V109.347H70.4915V108.213C70.2488 108.605 69.9081 108.913 69.4695 109.137C69.0401 109.352 68.5641 109.459 68.0415 109.459C67.4441 109.459 66.9075 109.338 66.4315 109.095C65.9555 108.843 65.5775 108.47 65.2975 107.975C65.0268 107.481 64.8915 106.879 64.8915 106.169V101.675H66.1515V106.001C66.1515 106.757 66.3428 107.341 66.7255 107.751C67.1081 108.153 67.6308 108.353 68.2935 108.353C68.9748 108.353 69.5115 108.143 69.9035 107.723C70.2955 107.303 70.4915 106.692 70.4915 105.889V101.675H71.7655ZM73.4545 105.483C73.4545 104.699 73.6132 104.013 73.9305 103.425C74.2479 102.828 74.6819 102.366 75.2325 102.039C75.7925 101.713 76.4179 101.549 77.1085 101.549C77.7059 101.549 78.2612 101.689 78.7745 101.969C79.2879 102.24 79.6799 102.599 79.9505 103.047V98.9874H81.2385V109.347H79.9505V107.905C79.6985 108.363 79.3252 108.741 78.8305 109.039C78.3359 109.329 77.7572 109.473 77.0945 109.473C76.4132 109.473 75.7925 109.305 75.2325 108.969C74.6819 108.633 74.2479 108.162 73.9305 107.555C73.6132 106.949 73.4545 106.258 73.4545 105.483ZM79.9505 105.497C79.9505 104.919 79.8339 104.415 79.6005 103.985C79.3672 103.556 79.0499 103.229 78.6485 103.005C78.2565 102.772 77.8225 102.655 77.3465 102.655C76.8705 102.655 76.4365 102.767 76.0445 102.991C75.6525 103.215 75.3399 103.542 75.1065 103.971C74.8732 104.401 74.7565 104.905 74.7565 105.483C74.7565 106.071 74.8732 106.585 75.1065 107.023C75.3399 107.453 75.6525 107.784 76.0445 108.017C76.4365 108.241 76.8705 108.353 77.3465 108.353C77.8225 108.353 78.2565 108.241 78.6485 108.017C79.0499 107.784 79.3672 107.453 79.6005 107.023C79.8339 106.585 79.9505 106.076 79.9505 105.497ZM84.0635 100.429C83.8208 100.429 83.6155 100.345 83.4475 100.177C83.2795 100.009 83.1955 99.8041 83.1955 99.5614C83.1955 99.3187 83.2795 99.1134 83.4475 98.9454C83.6155 98.7774 83.8208 98.6934 84.0635 98.6934C84.2968 98.6934 84.4928 98.7774 84.6515 98.9454C84.8195 99.1134 84.9035 99.3187 84.9035 99.5614C84.9035 99.8041 84.8195 100.009 84.6515 100.177C84.4928 100.345 84.2968 100.429 84.0635 100.429ZM84.6795 101.675V109.347H83.4055V101.675H84.6795ZM90.2108 109.473C89.4921 109.473 88.8388 109.31 88.2508 108.983C87.6721 108.657 87.2148 108.195 86.8788 107.597C86.5521 106.991 86.3888 106.291 86.3888 105.497C86.3888 104.713 86.5568 104.023 86.8928 103.425C87.2381 102.819 87.7048 102.357 88.2928 102.039C88.8808 101.713 89.5388 101.549 90.2668 101.549C90.9948 101.549 91.6528 101.713 92.2408 102.039C92.8288 102.357 93.2908 102.814 93.6268 103.411C93.9721 104.009 94.1448 104.704 94.1448 105.497C94.1448 106.291 93.9674 106.991 93.6128 107.597C93.2674 108.195 92.7961 108.657 92.1988 108.983C91.6014 109.31 90.9388 109.473 90.2108 109.473ZM90.2108 108.353C90.6681 108.353 91.0974 108.246 91.4988 108.031C91.9001 107.817 92.2221 107.495 92.4648 107.065C92.7168 106.636 92.8428 106.113 92.8428 105.497C92.8428 104.881 92.7214 104.359 92.4788 103.929C92.2361 103.5 91.9188 103.183 91.5268 102.977C91.1348 102.763 90.7101 102.655 90.2528 102.655C89.7861 102.655 89.3568 102.763 88.9648 102.977C88.5821 103.183 88.2741 103.5 88.0408 103.929C87.8074 104.359 87.6908 104.881 87.6908 105.497C87.6908 106.123 87.8028 106.65 88.0268 107.079C88.2601 107.509 88.5681 107.831 88.9508 108.045C89.3334 108.251 89.7534 108.353 90.2108 108.353ZM103.318 101.535C104.252 101.535 105.008 101.82 105.586 102.389C106.165 102.949 106.454 103.761 106.454 104.825V109.347H105.194V105.007C105.194 104.242 105.003 103.659 104.62 103.257C104.238 102.847 103.715 102.641 103.052 102.641C102.38 102.641 101.844 102.851 101.442 103.271C101.05 103.691 100.854 104.303 100.854 105.105V109.347H99.5803V101.675H100.854V102.767C101.106 102.375 101.447 102.072 101.876 101.857C102.315 101.643 102.796 101.535 103.318 101.535ZM111.895 109.473C111.177 109.473 110.523 109.31 109.935 108.983C109.357 108.657 108.899 108.195 108.563 107.597C108.237 106.991 108.073 106.291 108.073 105.497C108.073 104.713 108.241 104.023 108.577 103.425C108.923 102.819 109.389 102.357 109.977 102.039C110.565 101.713 111.223 101.549 111.951 101.549C112.679 101.549 113.337 101.713 113.925 102.039C114.513 102.357 114.975 102.814 115.311 103.411C115.657 104.009 115.829 104.704 115.829 105.497C115.829 106.291 115.652 106.991 115.297 107.597C114.952 108.195 114.481 108.657 113.883 108.983C113.286 109.31 112.623 109.473 111.895 109.473ZM111.895 108.353C112.353 108.353 112.782 108.246 113.183 108.031C113.585 107.817 113.907 107.495 114.149 107.065C114.401 106.636 114.527 106.113 114.527 105.497C114.527 104.881 114.406 104.359 114.163 103.929C113.921 103.5 113.603 103.183 113.211 102.977C112.819 102.763 112.395 102.655 111.937 102.655C111.471 102.655 111.041 102.763 110.649 102.977C110.267 103.183 109.959 103.5 109.725 103.929C109.492 104.359 109.375 104.881 109.375 105.497C109.375 106.123 109.487 106.65 109.711 107.079C109.945 107.509 110.253 107.831 110.635 108.045C111.018 108.251 111.438 108.353 111.895 108.353ZM119.072 102.725V107.247C119.072 107.621 119.152 107.887 119.31 108.045C119.469 108.195 119.744 108.269 120.136 108.269H121.074V109.347H119.926C119.217 109.347 118.685 109.184 118.33 108.857C117.976 108.531 117.798 107.994 117.798 107.247V102.725H116.804V101.675H117.798V99.7434H119.072V101.675H121.074V102.725H119.072ZM129.632 105.217C129.632 105.46 129.618 105.717 129.59 105.987H123.458C123.505 106.743 123.761 107.336 124.228 107.765C124.704 108.185 125.278 108.395 125.95 108.395C126.501 108.395 126.958 108.269 127.322 108.017C127.695 107.756 127.957 107.411 128.106 106.981H129.478C129.273 107.719 128.862 108.321 128.246 108.787C127.63 109.245 126.865 109.473 125.95 109.473C125.222 109.473 124.569 109.31 123.99 108.983C123.421 108.657 122.973 108.195 122.646 107.597C122.319 106.991 122.156 106.291 122.156 105.497C122.156 104.704 122.315 104.009 122.632 103.411C122.949 102.814 123.393 102.357 123.962 102.039C124.541 101.713 125.203 101.549 125.95 101.549C126.678 101.549 127.322 101.708 127.882 102.025C128.442 102.343 128.871 102.781 129.17 103.341C129.478 103.892 129.632 104.517 129.632 105.217ZM128.316 104.951C128.316 104.466 128.209 104.051 127.994 103.705C127.779 103.351 127.485 103.085 127.112 102.907C126.748 102.721 126.342 102.627 125.894 102.627C125.25 102.627 124.699 102.833 124.242 103.243C123.794 103.654 123.537 104.223 123.472 104.951H128.316ZM134.044 109.473C133.456 109.473 132.928 109.375 132.462 109.179C131.995 108.974 131.626 108.694 131.356 108.339C131.085 107.975 130.936 107.56 130.908 107.093H132.224C132.261 107.476 132.438 107.789 132.756 108.031C133.082 108.274 133.507 108.395 134.03 108.395C134.515 108.395 134.898 108.288 135.178 108.073C135.458 107.859 135.598 107.588 135.598 107.261C135.598 106.925 135.448 106.678 135.15 106.519C134.851 106.351 134.389 106.188 133.764 106.029C133.194 105.88 132.728 105.731 132.364 105.581C132.009 105.423 131.701 105.194 131.44 104.895C131.188 104.587 131.062 104.186 131.062 103.691C131.062 103.299 131.178 102.94 131.412 102.613C131.645 102.287 131.976 102.03 132.406 101.843C132.835 101.647 133.325 101.549 133.876 101.549C134.725 101.549 135.411 101.764 135.934 102.193C136.456 102.623 136.736 103.211 136.774 103.957H135.5C135.472 103.556 135.308 103.234 135.01 102.991C134.72 102.749 134.328 102.627 133.834 102.627C133.376 102.627 133.012 102.725 132.742 102.921C132.471 103.117 132.336 103.374 132.336 103.691C132.336 103.943 132.415 104.153 132.574 104.321C132.742 104.48 132.947 104.611 133.19 104.713C133.442 104.807 133.787 104.914 134.226 105.035C134.776 105.185 135.224 105.334 135.57 105.483C135.915 105.623 136.209 105.838 136.452 106.127C136.704 106.417 136.834 106.795 136.844 107.261C136.844 107.681 136.727 108.059 136.494 108.395C136.26 108.731 135.929 108.997 135.5 109.193C135.08 109.38 134.594 109.473 134.044 109.473ZM22.4623 119.589V125.763C22.4623 126.631 22.6723 127.275 23.0923 127.695C23.5217 128.115 24.1143 128.325 24.8703 128.325C25.617 128.325 26.2003 128.115 26.6203 127.695C27.0497 127.275 27.2643 126.631 27.2643 125.763V119.589H28.5383V125.749C28.5383 126.561 28.375 127.247 28.0483 127.807C27.7217 128.358 27.2783 128.769 26.7183 129.039C26.1677 129.31 25.547 129.445 24.8563 129.445C24.1657 129.445 23.5403 129.31 22.9803 129.039C22.4297 128.769 21.991 128.358 21.6643 127.807C21.347 127.247 21.1883 126.561 21.1883 125.749V119.589H22.4623ZM31.9516 123.089C32.2036 122.651 32.5769 122.287 33.0716 121.997C33.5756 121.699 34.1589 121.549 34.8216 121.549C35.5029 121.549 36.1189 121.713 36.6696 122.039C37.2296 122.366 37.6683 122.828 37.9856 123.425C38.3029 124.013 38.4616 124.699 38.4616 125.483C38.4616 126.258 38.3029 126.949 37.9856 127.555C37.6683 128.162 37.2296 128.633 36.6696 128.969C36.1189 129.305 35.5029 129.473 34.8216 129.473C34.1683 129.473 33.5896 129.329 33.0856 129.039C32.5909 128.741 32.2129 128.372 31.9516 127.933V132.987H30.6776V121.675H31.9516V123.089ZM37.1596 125.483C37.1596 124.905 37.0429 124.401 36.8096 123.971C36.5763 123.542 36.2589 123.215 35.8576 122.991C35.4656 122.767 35.0316 122.655 34.5556 122.655C34.0889 122.655 33.6549 122.772 33.2536 123.005C32.8616 123.229 32.5443 123.561 32.3016 123.999C32.0683 124.429 31.9516 124.928 31.9516 125.497C31.9516 126.076 32.0683 126.585 32.3016 127.023C32.5443 127.453 32.8616 127.784 33.2536 128.017C33.6549 128.241 34.0889 128.353 34.5556 128.353C35.0316 128.353 35.4656 128.241 35.8576 128.017C36.2589 127.784 36.5763 127.453 36.8096 127.023C37.0429 126.585 37.1596 126.071 37.1596 125.483ZM41.4265 118.987V129.347H40.1525V118.987H41.4265ZM46.9578 129.473C46.2392 129.473 45.5858 129.31 44.9978 128.983C44.4192 128.657 43.9618 128.195 43.6258 127.597C43.2992 126.991 43.1358 126.291 43.1358 125.497C43.1358 124.713 43.3038 124.023 43.6398 123.425C43.9852 122.819 44.4518 122.357 45.0398 122.039C45.6278 121.713 46.2858 121.549 47.0138 121.549C47.7418 121.549 48.3998 121.713 48.9878 122.039C49.5758 122.357 50.0378 122.814 50.3738 123.411C50.7192 124.009 50.8918 124.704 50.8918 125.497C50.8918 126.291 50.7145 126.991 50.3598 127.597C50.0145 128.195 49.5432 128.657 48.9458 128.983C48.3485 129.31 47.6858 129.473 46.9578 129.473ZM46.9578 128.353C47.4152 128.353 47.8445 128.246 48.2458 128.031C48.6472 127.817 48.9692 127.495 49.2118 127.065C49.4638 126.636 49.5898 126.113 49.5898 125.497C49.5898 124.881 49.4685 124.359 49.2258 123.929C48.9832 123.5 48.6658 123.183 48.2738 122.977C47.8818 122.763 47.4572 122.655 46.9998 122.655C46.5332 122.655 46.1038 122.763 45.7118 122.977C45.3292 123.183 45.0212 123.5 44.7878 123.929C44.5545 124.359 44.4378 124.881 44.4378 125.497C44.4378 126.123 44.5498 126.65 44.7738 127.079C45.0072 127.509 45.3152 127.831 45.6978 128.045C46.0805 128.251 46.5005 128.353 46.9578 128.353ZM52.1049 125.483C52.1049 124.699 52.2636 124.013 52.5809 123.425C52.8982 122.828 53.3322 122.366 53.8829 122.039C54.4429 121.713 55.0636 121.549 55.7449 121.549C56.4169 121.549 57.0002 121.694 57.4949 121.983C57.9896 122.273 58.3582 122.637 58.6009 123.075V121.675H59.8889V129.347H58.6009V127.919C58.3489 128.367 57.9709 128.741 57.4669 129.039C56.9722 129.329 56.3936 129.473 55.7309 129.473C55.0496 129.473 54.4336 129.305 53.8829 128.969C53.3322 128.633 52.8982 128.162 52.5809 127.555C52.2636 126.949 52.1049 126.258 52.1049 125.483ZM58.6009 125.497C58.6009 124.919 58.4842 124.415 58.2509 123.985C58.0176 123.556 57.7002 123.229 57.2989 123.005C56.9069 122.772 56.4729 122.655 55.9969 122.655C55.5209 122.655 55.0869 122.767 54.6949 122.991C54.3029 123.215 53.9902 123.542 53.7569 123.971C53.5236 124.401 53.4069 124.905 53.4069 125.483C53.4069 126.071 53.5236 126.585 53.7569 127.023C53.9902 127.453 54.3029 127.784 54.6949 128.017C55.0869 128.241 55.5209 128.353 55.9969 128.353C56.4729 128.353 56.9069 128.241 57.2989 128.017C57.7002 127.784 58.0176 127.453 58.2509 127.023C58.4842 126.585 58.6009 126.076 58.6009 125.497ZM61.5799 125.483C61.5799 124.699 61.7385 124.013 62.0559 123.425C62.3732 122.828 62.8072 122.366 63.3579 122.039C63.9179 121.713 64.5432 121.549 65.2339 121.549C65.8312 121.549 66.3865 121.689 66.8999 121.969C67.4132 122.24 67.8052 122.599 68.0759 123.047V118.987H69.3639V129.347H68.0759V127.905C67.8239 128.363 67.4505 128.741 66.9559 129.039C66.4612 129.329 65.8825 129.473 65.2199 129.473C64.5385 129.473 63.9179 129.305 63.3579 128.969C62.8072 128.633 62.3732 128.162 62.0559 127.555C61.7385 126.949 61.5799 126.258 61.5799 125.483ZM68.0759 125.497C68.0759 124.919 67.9592 124.415 67.7259 123.985C67.4925 123.556 67.1752 123.229 66.7739 123.005C66.3819 122.772 65.9479 122.655 65.4719 122.655C64.9959 122.655 64.5619 122.767 64.1699 122.991C63.7779 123.215 63.4652 123.542 63.2319 123.971C62.9985 124.401 62.8819 124.905 62.8819 125.483C62.8819 126.071 62.9985 126.585 63.2319 127.023C63.4652 127.453 63.7779 127.784 64.1699 128.017C64.5619 128.241 64.9959 128.353 65.4719 128.353C65.9479 128.353 66.3819 128.241 66.7739 128.017C67.1752 127.784 67.4925 127.453 67.7259 127.023C67.9592 126.585 68.0759 126.076 68.0759 125.497ZM76.5512 119.589V129.347H75.2772V119.589H76.5512ZM82.4745 121.535C83.4079 121.535 84.1639 121.82 84.7425 122.389C85.3212 122.949 85.6105 123.761 85.6105 124.825V129.347H84.3505V125.007C84.3505 124.242 84.1592 123.659 83.7765 123.257C83.3939 122.847 82.8712 122.641 82.2085 122.641C81.5365 122.641 80.9999 122.851 80.5985 123.271C80.2065 123.691 80.0105 124.303 80.0105 125.105V129.347H78.7365V121.675H80.0105V122.767C80.2625 122.375 80.6032 122.072 81.0325 121.857C81.4712 121.643 81.9519 121.535 82.4745 121.535ZM87.2296 125.497C87.2296 124.704 87.3883 124.013 87.7056 123.425C88.0229 122.828 88.4616 122.366 89.0216 122.039C89.5909 121.713 90.2396 121.549 90.9676 121.549C91.9103 121.549 92.6849 121.778 93.2916 122.235C93.9076 122.693 94.3136 123.327 94.5096 124.139H93.1376C93.0069 123.673 92.7503 123.304 92.3676 123.033C91.9943 122.763 91.5276 122.627 90.9676 122.627C90.2396 122.627 89.6516 122.879 89.2036 123.383C88.7556 123.878 88.5316 124.583 88.5316 125.497C88.5316 126.421 88.7556 127.135 89.2036 127.639C89.6516 128.143 90.2396 128.395 90.9676 128.395C91.5276 128.395 91.9943 128.265 92.3676 128.003C92.7409 127.742 92.9976 127.369 93.1376 126.883H94.5096C94.3043 127.667 93.8936 128.297 93.2776 128.773C92.6616 129.24 91.8916 129.473 90.9676 129.473C90.2396 129.473 89.5909 129.31 89.0216 128.983C88.4616 128.657 88.0229 128.195 87.7056 127.597C87.3883 127 87.2296 126.3 87.2296 125.497ZM96.8815 120.429C96.6388 120.429 96.4335 120.345 96.2655 120.177C96.0975 120.009 96.0135 119.804 96.0135 119.561C96.0135 119.319 96.0975 119.113 96.2655 118.945C96.4335 118.777 96.6388 118.693 96.8815 118.693C97.1148 118.693 97.3108 118.777 97.4695 118.945C97.6375 119.113 97.7215 119.319 97.7215 119.561C97.7215 119.804 97.6375 120.009 97.4695 120.177C97.3108 120.345 97.1148 120.429 96.8815 120.429ZM97.4975 121.675V129.347H96.2235V121.675H97.4975ZM99.2068 125.483C99.2068 124.699 99.3655 124.013 99.6828 123.425C100 122.828 100.434 122.366 100.985 122.039C101.545 121.713 102.17 121.549 102.861 121.549C103.458 121.549 104.013 121.689 104.527 121.969C105.04 122.24 105.432 122.599 105.703 123.047V118.987H106.991V129.347H105.703V127.905C105.451 128.363 105.077 128.741 104.583 129.039C104.088 129.329 103.509 129.473 102.847 129.473C102.165 129.473 101.545 129.305 100.985 128.969C100.434 128.633 100 128.162 99.6828 127.555C99.3655 126.949 99.2068 126.258 99.2068 125.483ZM105.703 125.497C105.703 124.919 105.586 124.415 105.353 123.985C105.119 123.556 104.802 123.229 104.401 123.005C104.009 122.772 103.575 122.655 103.099 122.655C102.623 122.655 102.189 122.767 101.797 122.991C101.405 123.215 101.092 123.542 100.859 123.971C100.625 124.401 100.509 124.905 100.509 125.483C100.509 126.071 100.625 126.585 100.859 127.023C101.092 127.453 101.405 127.784 101.797 128.017C102.189 128.241 102.623 128.353 103.099 128.353C103.575 128.353 104.009 128.241 104.401 128.017C104.802 127.784 105.119 127.453 105.353 127.023C105.586 126.585 105.703 126.076 105.703 125.497ZM116.158 125.217C116.158 125.46 116.144 125.717 116.116 125.987H109.984C110.03 126.743 110.287 127.336 110.754 127.765C111.23 128.185 111.804 128.395 112.476 128.395C113.026 128.395 113.484 128.269 113.848 128.017C114.221 127.756 114.482 127.411 114.632 126.981H116.004C115.798 127.719 115.388 128.321 114.772 128.787C114.156 129.245 113.39 129.473 112.476 129.473C111.748 129.473 111.094 129.31 110.516 128.983C109.946 128.657 109.498 128.195 109.172 127.597C108.845 126.991 108.682 126.291 108.682 125.497C108.682 124.704 108.84 124.009 109.158 123.411C109.475 122.814 109.918 122.357 110.488 122.039C111.066 121.713 111.729 121.549 112.476 121.549C113.204 121.549 113.848 121.708 114.408 122.025C114.968 122.343 115.397 122.781 115.696 123.341C116.004 123.892 116.158 124.517 116.158 125.217ZM114.842 124.951C114.842 124.466 114.734 124.051 114.52 123.705C114.305 123.351 114.011 123.085 113.638 122.907C113.274 122.721 112.868 122.627 112.42 122.627C111.776 122.627 111.225 122.833 110.768 123.243C110.32 123.654 110.063 124.223 109.998 124.951H114.842ZM121.591 121.535C122.525 121.535 123.281 121.82 123.859 122.389C124.438 122.949 124.727 123.761 124.727 124.825V129.347H123.467V125.007C123.467 124.242 123.276 123.659 122.893 123.257C122.511 122.847 121.988 122.641 121.325 122.641C120.653 122.641 120.117 122.851 119.715 123.271C119.323 123.691 119.127 124.303 119.127 125.105V129.347H117.853V121.675H119.127V122.767C119.379 122.375 119.72 122.072 120.149 121.857C120.588 121.643 121.069 121.535 121.591 121.535ZM128.376 122.725V127.247C128.376 127.621 128.456 127.887 128.614 128.045C128.773 128.195 129.048 128.269 129.44 128.269H130.378V129.347H129.23C128.521 129.347 127.989 129.184 127.634 128.857C127.28 128.531 127.102 127.994 127.102 127.247V122.725H126.108V121.675H127.102V119.743H128.376V121.675H130.378V122.725H128.376ZM136.957 123.089C137.209 122.651 137.582 122.287 138.077 121.997C138.581 121.699 139.164 121.549 139.827 121.549C140.508 121.549 141.124 121.713 141.675 122.039C142.235 122.366 142.673 122.828 142.991 123.425C143.308 124.013 143.467 124.699 143.467 125.483C143.467 126.258 143.308 126.949 142.991 127.555C142.673 128.162 142.235 128.633 141.675 128.969C141.124 129.305 140.508 129.473 139.827 129.473C139.173 129.473 138.595 129.329 138.091 129.039C137.596 128.741 137.218 128.372 136.957 127.933V132.987H135.683V121.675H136.957V123.089ZM142.165 125.483C142.165 124.905 142.048 124.401 141.815 123.971C141.581 123.542 141.264 123.215 140.863 122.991C140.471 122.767 140.037 122.655 139.561 122.655C139.094 122.655 138.66 122.772 138.259 123.005C137.867 123.229 137.549 123.561 137.307 123.999C137.073 124.429 136.957 124.928 136.957 125.497C136.957 126.076 137.073 126.585 137.307 127.023C137.549 127.453 137.867 127.784 138.259 128.017C138.66 128.241 139.094 128.353 139.561 128.353C140.037 128.353 140.471 128.241 140.863 128.017C141.264 127.784 141.581 127.453 141.815 127.023C142.048 126.585 142.165 126.071 142.165 125.483ZM146.431 122.921C146.655 122.483 146.973 122.142 147.383 121.899C147.803 121.657 148.312 121.535 148.909 121.535V122.851H148.573C147.145 122.851 146.431 123.626 146.431 125.175V129.347H145.157V121.675H146.431V122.921ZM153.74 129.473C153.021 129.473 152.368 129.31 151.78 128.983C151.201 128.657 150.744 128.195 150.408 127.597C150.081 126.991 149.918 126.291 149.918 125.497C149.918 124.713 150.086 124.023 150.422 123.425C150.767 122.819 151.234 122.357 151.822 122.039C152.41 121.713 153.068 121.549 153.796 121.549C154.524 121.549 155.182 121.713 155.77 122.039C156.358 122.357 156.82 122.814 157.156 123.411C157.501 124.009 157.674 124.704 157.674 125.497C157.674 126.291 157.497 126.991 157.142 127.597C156.797 128.195 156.325 128.657 155.728 128.983C155.131 129.31 154.468 129.473 153.74 129.473ZM153.74 128.353C154.197 128.353 154.627 128.246 155.028 128.031C155.429 127.817 155.751 127.495 155.994 127.065C156.246 126.636 156.372 126.113 156.372 125.497C156.372 124.881 156.251 124.359 156.008 123.929C155.765 123.5 155.448 123.183 155.056 122.977C154.664 122.763 154.239 122.655 153.782 122.655C153.315 122.655 152.886 122.763 152.494 122.977C152.111 123.183 151.803 123.5 151.57 123.929C151.337 124.359 151.22 124.881 151.22 125.497C151.22 126.123 151.332 126.65 151.556 127.079C151.789 127.509 152.097 127.831 152.48 128.045C152.863 128.251 153.283 128.353 153.74 128.353ZM162.709 129.473C161.991 129.473 161.337 129.31 160.749 128.983C160.171 128.657 159.713 128.195 159.377 127.597C159.051 126.991 158.887 126.291 158.887 125.497C158.887 124.713 159.055 124.023 159.391 123.425C159.737 122.819 160.203 122.357 160.791 122.039C161.379 121.713 162.037 121.549 162.765 121.549C163.493 121.549 164.151 121.713 164.739 122.039C165.327 122.357 165.789 122.814 166.125 123.411C166.471 124.009 166.643 124.704 166.643 125.497C166.643 126.291 166.466 126.991 166.111 127.597C165.766 128.195 165.295 128.657 164.697 128.983C164.1 129.31 163.437 129.473 162.709 129.473ZM162.709 128.353C163.167 128.353 163.596 128.246 163.997 128.031C164.399 127.817 164.721 127.495 164.963 127.065C165.215 126.636 165.341 126.113 165.341 125.497C165.341 124.881 165.22 124.359 164.977 123.929C164.735 123.5 164.417 123.183 164.025 122.977C163.633 122.763 163.209 122.655 162.751 122.655C162.285 122.655 161.855 122.763 161.463 122.977C161.081 123.183 160.773 123.5 160.539 123.929C160.306 124.359 160.189 124.881 160.189 125.497C160.189 126.123 160.301 126.65 160.525 127.079C160.759 127.509 161.067 127.831 161.449 128.045C161.832 128.251 162.252 128.353 162.709 128.353ZM171.454 122.725H169.844V129.347H168.57V122.725H167.576V121.675H168.57V121.129C168.57 120.271 168.79 119.645 169.228 119.253C169.676 118.852 170.39 118.651 171.37 118.651V119.715C170.81 119.715 170.414 119.827 170.18 120.051C169.956 120.266 169.844 120.625 169.844 121.129V121.675H171.454V122.725Z" fill="#474747"/>
</g>
<defs>
<clipPath id="clip0_3955_4588">
<path d="M0 60.3474C0 27.2103 26.8629 0.347412 60 0.347412H129C162.137 0.347412 189 27.2103 189 60.3474V164.347H0V60.3474Z" fill="white"/>
</clipPath>
</defs>
</svg>
