<svg width="1440" height="111" viewBox="0 0 1440 111" fill="none" xmlns="http://www.w3.org/2000/svg">
<g clip-path="url(#clip0_3945_4548)">
<rect width="1440" height="111" transform="translate(0 0.448486)" fill="#464749"/>
<rect x="10" y="53.3474" width="66.6667" height="10" fill="#E8E8E8"/>
<rect x="106.667" y="53.3474" width="66.6667" height="10" fill="#E8E8E8"/>
<rect x="203.333" y="53.3474" width="66.6667" height="10" fill="#E8E8E8"/>
<rect x="300" y="53.3474" width="66.6667" height="10" fill="#E8E8E8"/>
<rect x="396.667" y="53.3474" width="66.6667" height="10" fill="#E8E8E8"/>
<rect x="493.333" y="53.3474" width="66.6667" height="10" fill="#E8E8E8"/>
<rect x="590" y="53.3474" width="66.6667" height="10" fill="#E8E8E8"/>
<rect x="686.667" y="53.3474" width="66.6667" height="10" fill="#E8E8E8"/>
<rect x="783.333" y="53.3474" width="66.6667" height="10" fill="#E8E8E8"/>
<rect x="880" y="53.3474" width="66.6667" height="10" fill="#E8E8E8"/>
<rect x="976.667" y="53.3474" width="66.6667" height="10" fill="#E8E8E8"/>
<rect x="1073.33" y="53.3474" width="66.6667" height="10" fill="#E8E8E8"/>
<rect x="1170" y="53.3474" width="66.6667" height="10" fill="#E8E8E8"/>
<rect x="1266.67" y="53.3474" width="66.6667" height="10" fill="#E8E8E8"/>
<rect x="1363.33" y="53.3474" width="66.6667" height="10" fill="#E8E8E8"/>
<rect width="1440" height="9" transform="matrix(1 0 0 -1 0 9.14526)" fill="#C9CACC"/>
</g>
<defs>
<clipPath id="clip0_3945_4548">
<rect width="1440" height="111" fill="white" transform="translate(0 0.448486)"/>
</clipPath>
</defs>
</svg>
