<svg width="35" height="27" viewBox="0 0 35 27" fill="none" xmlns="http://www.w3.org/2000/svg">
<path d="M2.35143 0.622339C1.28743 0.602254 0.393534 1.46303 0.37345 2.52703L0.0363898 20.383C0.0149964 21.5164 0.912397 22.4483 2.04573 22.4697L4.8404 22.5224C5.12918 24.4646 6.78396 25.9737 8.80796 26.0119C10.832 26.0501 12.5425 24.6045 12.9044 22.6747L19.2191 22.7939C19.7231 22.8034 20.1778 22.5985 20.5305 22.2851C20.8792 22.6038 21.3285 22.8283 21.8431 22.8434L22.5897 22.8575C22.8785 24.7996 24.5333 26.3087 26.5573 26.3469C28.8106 26.3895 30.6881 24.5816 30.7306 22.3282C30.7731 20.0749 28.9653 18.1975 26.7119 18.1549C24.6879 18.1167 22.9774 19.5623 22.6155 21.4921L21.8688 21.4781C21.7408 21.4756 21.5478 21.384 21.4039 21.2345C21.26 21.0851 21.1967 20.9078 21.1991 20.7825L21.4439 7.81184C21.4487 7.55584 21.8834 7.13722 22.1394 7.14206L27.6008 7.24515C28.1368 7.25527 28.8806 7.84284 29.3916 8.47404C29.3967 8.48214 29.4073 8.48768 29.4125 8.49578L29.5163 8.64713L26.2097 8.58471C25.1217 8.56417 24.1451 9.42605 24.123 10.594L24.0715 13.3247C24.0607 13.8927 24.3073 14.3962 24.6632 14.7657C25.019 15.1352 25.5128 15.4007 26.0808 15.4114L32.9075 15.5402L32.8044 21.0016C32.7995 21.2576 32.3648 21.6762 32.1088 21.6713L30.7435 21.6456L30.7177 23.0109L32.0831 23.0367C33.2164 23.0581 34.1483 22.1607 34.1697 21.0273L34.2937 14.4567C34.3232 12.894 33.2613 11.4921 33.2613 11.4921L33.24 11.4917L30.4949 7.68391L30.4953 7.66258L30.4743 7.64084C29.8593 6.86897 28.9332 5.90448 27.6265 5.87981L22.1652 5.77672C21.9226 5.77214 21.6976 5.81858 21.4801 5.89184L21.5353 2.96917C21.5551 1.92117 20.7461 0.969567 19.6528 0.948929L2.35143 0.622339ZM2.32566 1.98767L19.627 2.31426C19.9203 2.3198 20.1763 2.6074 20.17 2.9434L19.8317 20.8634C19.8257 21.1834 19.5675 21.4346 19.2448 21.4285L12.9302 21.3093C12.6414 19.3672 10.9866 17.8581 8.9626 17.8199C6.9386 17.7817 5.22805 19.2272 4.86617 21.1571L2.0715 21.1043C1.8155 21.0995 1.39694 20.6621 1.40172 20.4088L1.73878 2.5528C1.74482 2.2328 2.00032 1.98153 2.32566 1.98767ZM26.1839 9.95004L30.5146 10.0318L32.1367 12.2819C32.1367 12.2819 32.7354 13.3522 32.8479 14.1733L26.1066 14.046C25.9919 14.0439 25.8095 13.9551 25.663 13.8029C25.5165 13.6508 25.4346 13.4652 25.4368 13.3505L25.4883 10.6198C25.4948 10.2758 25.9066 9.94481 26.1839 9.95004ZM8.93683 19.1852C10.4542 19.2139 11.6446 20.4501 11.6159 21.9674C11.5873 23.4848 10.3511 24.6752 8.83374 24.6465C7.3164 24.6179 6.12597 23.3817 6.15462 21.8643C6.18326 20.347 7.41949 19.1566 8.93683 19.1852ZM26.6862 19.5203C28.2035 19.5489 29.3939 20.7851 29.3653 22.3025C29.3366 23.8198 28.1004 25.0102 26.5831 24.9816C25.0657 24.9529 23.8753 23.7167 23.9039 22.1994C23.9326 20.682 25.1688 19.4916 26.6862 19.5203Z" fill="#696969"/>
</svg>
