<svg width="25" height="20" viewBox="0 0 25 20" fill="none" xmlns="http://www.w3.org/2000/svg">
<g clip-path="url(#clip0_3955_4708)">
<path d="M8.91075 18.8989C17.213 18.8989 21.7546 11.9721 21.7546 5.97561C21.7546 5.78178 21.7546 5.58517 21.7464 5.39134C22.6306 4.74681 23.3937 3.94886 24 3.03485C23.1741 3.40155 22.2988 3.64322 21.4026 3.75204C22.3466 3.18388 23.0536 2.28992 23.3923 1.23633C22.5054 1.7654 21.5346 2.1368 20.5226 2.33427C19.8423 1.60465 18.9419 1.1213 17.9611 0.959085C16.9803 0.796872 15.9737 0.96485 15.0973 1.437C14.2209 1.90915 13.5236 2.65912 13.1134 3.57075C12.7031 4.48238 12.6029 5.50478 12.8281 6.47959C11.0334 6.38897 9.27762 5.9195 7.67468 5.10161C6.07175 4.28373 4.65744 3.1357 3.5235 1.73199C2.94784 2.73313 2.77216 3.91736 3.03214 5.04419C3.29211 6.17102 3.96825 7.15598 4.92325 7.79906C4.20762 7.77457 3.50772 7.58107 2.88 7.23416V7.29647C2.88123 8.34523 3.24205 9.3614 3.90145 10.1732C4.56086 10.985 5.4784 11.5427 6.499 11.7519C6.11161 11.8594 5.71144 11.913 5.30963 11.9111C5.02635 11.912 4.74365 11.8856 4.46537 11.8322C4.75383 12.735 5.3155 13.5244 6.07171 14.0897C6.82793 14.655 7.74081 14.968 8.6825 14.9848C7.08276 16.25 5.10668 16.9362 3.0725 16.9329C2.71407 16.9344 2.35588 16.9136 2 16.8706C4.06458 18.1959 6.46228 18.8997 8.91075 18.8989Z" fill="white"/>
</g>
<defs>
<clipPath id="clip0_3955_4708">
<rect width="24" height="19.7647" fill="white" transform="translate(0.5 0.0166016)"/>
</clipPath>
</defs>
</svg>
